<svg xmlns="http://www.w3.org/2000/svg" xmlns:xlink="http://www.w3.org/1999/xlink" viewBox="0 0 386 94" xmlns:v="https://vecta.io/nano"><path d="M10.09 12.87h365.18v68.26H10.09z" fill="#fff"/><path d="M156.37 80.59H77.83C82 69.8 83.79 58.45 83.85 47c.06-11.83-1.91-23.73-6.01-33.59h78.54v67.18z" fill="#003882"/><path d="M122.59 25.7c0-.61.5-1.11 1.11-1.11h2.22c.61 0 1.11.49 1.11 1.11v20.18c0 .61-.5 1.11-1.11 1.11h-2.21c-.61 0-1.12-.49-1.12-1.1v-8.31h-9.03v8.31c0 .61-.5 1.11-1.11 1.11h-2.22a1.1 1.1 0 0 1-1.11-1.11V25.71c0-.61.5-1.11 1.11-1.11h2.23c.61 0 1.11.49 1.11 1.11v8.12h9.02V25.7zm27.47 0c.55-.61.63-1.11-.12-1.11l-3.29.02c-.62 0-1.2-.13-2.19.85l-8.31 9.26v-9.01a1.09 1.09 0 0 0-1.09-1.11h-2.26c-.61 0-1.11.5-1.11 1.11v20.18c0 .61.5 1.11 1.11 1.11h2.27c.61 0 1.08-.5 1.08-1.11v-4.7l3.82-4.24 5.53 8.94c.38.61.9 1.11 1.52 1.11h3.19c.62 0 .81-.5.43-1.11l-7.66-12.29 7.08-7.9zm-52.14-1.11c.84 0 1.28.49 1.49 1.11l6.9 20.18c.21.61-.12 1.11-.73 1.11h-2.21c-.61 0-1.3-.49-1.51-1.11l-1.47-4.54H92.8l-1.46 4.54c-.21.61-.89 1.11-1.51 1.11h-2.21c-.61 0-.94-.49-.73-1.11l6.9-20.18c.21-.61.65-1.11 1.49-1.11h2.64zm-4.31 12.97h5.07l-2.52-7.82-2.55 7.82z" fill="#fff" fill-rule="evenodd"/><path d="M77.83 13.41H10.88V80.6h66.95c4.23-10.91 5.96-22.56 6-33.68.05-12.08-1.93-23.66-6-33.51z" fill="#cdd7e6"/><path d="M26.9 57.09c7.41.4 14.18-.18 20.92-1.24 6.37-1.01 12.64-2.44 18.58-5.04 3.67-1.61 7.29-3.35 9.22-7.8.76 3.07.48 5.47-1.08 7.68-2.12 3.01-5.17 4.82-8.42 6.3-6.52 2.98-13.46 4.45-20.5 5.4-6.38.86-12.8 1.35-19.24.43-3.78-.54-6.14-3.16-6.43-6.98-.08-1 .48-1.49 1.28-1.72 3.67-1.02 7.39-1.06 11.12-.44.22.04.55.24.59.41.12.5-.37.64-.7.79-1.6.69-3.22 1.34-5.34 2.21z" fill="#010101"/><path d="M32.42 35.78c-1.97 1.5-4.25 1.74-6.61 2.91 8.88.49 17.21.04 25.46-1.7 5.22-1.1 10.35-2.44 15.07-5.04 3.08-1.7 3.94-3 3.99-5.93 1.82 1.66 2.06 4.06.64 6.46-1.39 2.35-3.58 3.82-5.89 5.09-7.89 4.34-16.49 6.35-25.31 7.61-5.01.72-10.04 1.16-15.1.44-6.92-.98-6.49-2.24-5.27-8.62.17-.89.89-1.28 1.67-1.5 3.56-.99 7.13-.85 10.71-.1.19.05.34.2.64.38z" fill="#1b8943"/><path d="M34.44 25.46l-5.57 1.91c4.2 1.08 8.21.51 12.18.11 5.29-.53 10.54-1.44 15.42-3.74.71-.33 1.41-.71 2.05-1.16 1.98-1.43 2.14-2.29.89-4.39 3.11.43 4.75 3.76 3.09 6.33-1.03 1.6-2.56 2.62-4.21 3.47-6.34 3.27-13.18 4.72-20.19 5.57-4.05.49-8.11.72-12.16.01-.77-.14-1.56-.29-2.28-.58-1.8-.73-2.01-1.63-1.13-3.39 2.54-5.13 5.64-5.68 11.91-4.14z" fill="#f4f5fb"/><path d="M38.75 18.59c-.37.93-1.33.6-2.03 1.31 4.07.78 7.84.29 11.6-.84.63-.19 1.44-1.28 1.97-.18.44.92-.51 1.56-1.23 1.98-3.11 1.82-6.57 2.57-10.08 3.04-2.4.32-4.82.54-7.22-.02-.69-.16-1.53-.26-1.71-1.09-.16-.76.53-1.14 1.05-1.51 1.56-1.09 3.18-2.08 5.01-2.65.85-.26 1.73-.53 2.64-.04z" fill="#f8993a"/><path d="M37.76 74.3c9.25 3.12 17.84 1.15 26.09-3.41.25-.14.6-.29.51-.85-6.59 3.12-13.59 4.12-20.9 4.45 1.55-1.66 1.6-1.72-.65-2.43-.17-.06-.36-.08-.54-.08l-4.16-.01c-.64 0-1.25.32-1.55.89-.48.89.38 1.16 1.2 1.44z" fill="#fecf0a"/><path d="M54.73 65.3c-6.92 1.49-13.93 2.2-21.06 1.73.99-.65 2.03-1.13 3.06-1.64.3-.15.63-.35.57-.72-.05-.35-.41-.48-.74-.54-3.01-.52-6.01-.61-8.97.23-1.77.5-1.84 1.02-.63 2.4 2.63 3.02 5.79 4.91 10.32 4.65l5.27.01c3.22-.16 6.4-.68 9.54-1.36 6.38-1.38 12.64-3.1 17.98-7.11 1.98-1.48 3.36-3.38 4.26-6.33-5.77 5.59-12.68 7.19-19.6 8.68z" fill="#db1f26"/><path d="M168.19 33.02v-9.3h1.58v9.3h-1.58z"/><use xlink:href="#H"/><path d="M182.37 33.02v-.89h-.03c-.08.22-.26.44-.55.65-.34.26-.69.39-1.05.39-1.47 0-2.2-1.12-2.2-3.36 0-1 .17-1.79.52-2.38.39-.65.95-.98 1.68-.98.71 0 1.24.31 1.6.92h.03v-3.65h1.49v9.3h-1.49zm-2.24-3.2c0 1.46.37 2.19 1.11 2.19.38 0 .67-.24.88-.71.17-.4.26-.89.26-1.48 0-1.47-.38-2.2-1.13-2.2s-1.12.73-1.12 2.2zm8.11 3.35c-.91 0-1.62-.3-2.11-.9-.48-.58-.72-1.4-.72-2.46s.24-1.89.73-2.48 1.19-.88 2.1-.88 1.61.29 2.1.88.73 1.41.73 2.48-.24 1.88-.72 2.46c-.5.6-1.2.9-2.11.9zM187 29.82c0 .71.07 1.25.21 1.6a1.03 1.03 0 0 0 1.03.7c.49 0 .83-.23 1.03-.7.14-.35.21-.88.21-1.6s-.07-1.25-.21-1.6a1.03 1.03 0 0 0-1.03-.7c-.49 0-.83.23-1.03.7-.14.35-.21.88-.21 1.6zm5.36.45v-1.45h5.02v1.45h-5.02zm13.27-2.67v4.72c-.25.19-.6.36-1.05.52-.61.22-1.23.33-1.88.33-1.33 0-2.33-.46-3.02-1.38-.63-.84-.94-1.98-.94-3.44 0-3.19 1.23-4.79 3.68-4.79 1.04 0 1.83.24 2.36.73.49.45.74 1.07.74 1.88h-1.75c0-.4-.1-.73-.3-.99-.24-.33-.59-.49-1.05-.49-1.29 0-1.94 1.22-1.94 3.67 0 2.47.74 3.7 2.22 3.7.68 0 1.13-.12 1.35-.37v-2.96h-1.75V27.6h3.33z"/><use xlink:href="#I"/><use xlink:href="#J"/><use xlink:href="#K"/><path d="M232.31 33.02v-.74h-.03c-.29.6-.85.9-1.67.9-.55 0-1-.15-1.36-.46s-.53-.72-.53-1.22c0-.91.49-1.54 1.46-1.88.49-.17 1.2-.27 2.13-.3v-.63c0-.78-.3-1.17-.9-1.17-.66 0-.99.33-.99.98h-1.46c0-.63.2-1.13.61-1.48.42-.37 1.04-.55 1.84-.55 1.55 0 2.33.67 2.33 1.99v4.57h-1.43zm-2.13-1.67c0 .51.27.77.8.77.45 0 .79-.21 1.03-.64.2-.36.3-.79.3-1.29-.57 0-1.04.09-1.43.26-.46.2-.7.5-.7.9z"/><use xlink:href="#H" x="63.87"/><path d="M253.04 31.24v1.39c-.85.36-1.69.54-2.53.54-1.31 0-2.3-.45-2.97-1.34-.63-.83-.94-2-.94-3.51 0-1.46.28-2.6.84-3.4.62-.9 1.57-1.36 2.83-1.36 1.02 0 1.81.27 2.38.81.5.49.75 1.12.75 1.89h-1.75c0-1.05-.46-1.58-1.38-1.58-1.29 0-1.93 1.13-1.93 3.4 0 2.56.84 3.84 2.53 3.84.66.01 1.38-.22 2.17-.68z"/><use xlink:href="#L"/><path d="M264.96 33.02v-.74h-.03c-.29.6-.85.9-1.67.9-.55 0-1-.15-1.36-.46s-.53-.72-.53-1.22c0-.91.49-1.54 1.46-1.88.49-.17 1.2-.27 2.13-.3v-.63c0-.78-.3-1.17-.9-1.17-.66 0-.99.33-.99.98h-1.46c0-.63.2-1.13.61-1.48.42-.37 1.04-.55 1.84-.55 1.55 0 2.33.67 2.33 1.99v4.57h-1.43zm-2.14-1.67c0 .51.27.77.8.77.45 0 .79-.21 1.03-.64.2-.36.3-.79.3-1.29-.57 0-1.04.09-1.43.26-.46.2-.7.5-.7.9z"/><use xlink:href="#K" x="49.62"/><path d="M280.03 23.72v3.65h.03c.38-.61.93-.92 1.66-.92 1.47 0 2.21 1.12 2.21 3.36s-.9 3.36-2.71 3.36c-.86 0-1.51-.24-1.97-.72-.47-.49-.71-1.21-.71-2.15v-6.58h1.49zm0 6.1c0 .83.08 1.42.24 1.75.17.37.49.55.94.55.75 0 1.12-.77 1.12-2.3 0-1.6-.37-2.4-1.12-2.4-.41 0-.72.27-.93.8-.16.42-.25.95-.25 1.6z"/><use xlink:href="#M"/><use xlink:href="#J" x="78.13"/><use xlink:href="#N"/><path d="M308.34 33.02v-5.38h-1.17V26.6h1.17v-.88c0-1.44.88-2.16 2.63-2.16.61 0 1.1.05 1.49.14v1.15a3.33 3.33 0 0 0-1.17-.23c-.97 0-1.46.51-1.46 1.54v.44h1.89v1.04h-1.89v5.38h-1.49zm14.84-1.78v1.39c-.85.36-1.69.54-2.53.54-1.31 0-2.3-.45-2.97-1.34-.63-.83-.94-2-.94-3.51 0-1.46.28-2.6.84-3.4.62-.9 1.57-1.36 2.83-1.36 1.02 0 1.81.27 2.38.81.5.49.75 1.12.75 1.89h-1.75c0-1.05-.46-1.58-1.38-1.58-1.29 0-1.93 1.13-1.93 3.4 0 2.56.84 3.84 2.53 3.84.65.01 1.38-.22 2.17-.68z"/><use xlink:href="#N" x="23.76"/><use xlink:href="#K" x="112.88"/><use xlink:href="#K" x="123.25"/><use xlink:href="#O"/><use xlink:href="#J" x="144.87"/><path d="M368.45 31.96v.92a6.3 6.3 0 0 1-1.88.3c-1.03 0-1.85-.28-2.44-.85-.66-.63-.99-1.56-.99-2.79 0-.9.23-1.63.68-2.17.51-.61 1.26-.91 2.25-.91 1.63 0 2.44.78 2.44 2.34h-1.59c0-.86-.32-1.29-.97-1.29a1.04 1.04 0 0 0-.92.51c-.21.32-.31.73-.31 1.24 0 .75.2 1.39.6 1.91.47.63 1.16.94 2.05.94a3.24 3.24 0 0 0 1.08-.15z"/><use xlink:href="#I" x="162.25"/><path d="M168.25 45.93v-9.3h2.3c1.48 0 2.54.35 3.15 1.06.62.71.93 1.89.93 3.56 0 1.92-.44 3.24-1.32 3.96-.6.48-1.52.72-2.77.72h-2.29zm1.57-8.19v7.06h.73c.83 0 1.42-.24 1.77-.71.38-.53.57-1.48.57-2.85 0-1.22-.15-2.09-.44-2.6-.35-.6-.98-.9-1.9-.9h-.73z"/><use xlink:href="#M" x="-109.23" y="12.9"/><path d="M186.38 45.93v-1.2h-.03c-.37.9-1.01 1.35-1.9 1.35-.5 0-.91-.17-1.22-.51-.35-.37-.52-.91-.52-1.61v-4.45h1.49v3.67l.03.97c.08.36.29.53.63.53.46 0 .84-.27 1.13-.81.25-.47.38-1 .38-1.58v-2.78h1.49v6.42h-1.48zm7.29-1.02v1.05c-.43.07-.85.11-1.23.11-.78 0-1.32-.18-1.62-.53-.23-.27-.35-.68-.35-1.24v-3.76h-1.25V39.5h1.25v-1.52l1.5-.9v2.42h1.91v1.04h-1.91v3.03c0 .46.05.79.15.99.15.3.44.45.86.45.17.01.4-.02.69-.1zm4.68-5.31v1.27c-.58-.29-1.05-.43-1.43-.43-.25 0-.47.05-.67.16-.22.11-.33.26-.33.44 0 .22.24.47.73.78l1.36.9c.49.43.73.9.73 1.44 0 .64-.23 1.12-.68 1.45-.43.32-1.01.47-1.75.47a5.6 5.6 0 0 1-1.7-.26v-1.3c.6.26 1.14.39 1.63.39.74 0 1.11-.19 1.11-.58 0-.19-.24-.44-.72-.76l-1.33-.94c-.48-.43-.72-.9-.72-1.39 0-.59.21-1.05.62-1.39.42-.33.98-.5 1.68-.5.37.01.85.09 1.47.25z"/><use xlink:href="#P"/><path d="M206.33 45.93v-9.3h1.49v4.08h.03c.37-.9 1.01-1.34 1.9-1.34.5 0 .91.17 1.22.51.35.37.52.91.52 1.61v4.45H210v-3.67l-.03-.96c-.08-.36-.29-.53-.63-.53-.47 0-.84.27-1.14.81-.25.47-.38.99-.38 1.57v2.78h-1.49zm6.85-2.76v-1.45h5.02v1.45h-5.02zm6.74 2.76v-9.3h1.58v9.3h-1.58z"/><use xlink:href="#Q"/><path d="M234.15 45.93v-.89h-.03c-.08.22-.26.44-.55.65-.34.26-.69.39-1.05.39-1.47 0-2.2-1.12-2.2-3.36 0-1 .17-1.79.52-2.38.39-.65.95-.98 1.68-.98.71 0 1.24.31 1.6.92h.03v-3.65h1.49v9.3h-1.49zm-2.23-3.21c0 1.46.37 2.19 1.11 2.19.38 0 .67-.24.88-.71.17-.4.26-.89.26-1.48 0-1.47-.38-2.2-1.13-2.2-.76 0-1.12.73-1.12 2.2zm5.76-4.62v-1.48h1.49v1.48h-1.49zm0 7.83v-6.42h1.49v6.42h-1.49zm6.9-6.33v1.27c-.58-.29-1.05-.43-1.43-.43-.25 0-.47.05-.67.16-.22.11-.33.26-.33.44 0 .22.24.47.73.78l1.36.9c.49.43.73.9.73 1.44 0 .64-.23 1.12-.68 1.45-.43.32-1.01.47-1.75.47a5.6 5.6 0 0 1-1.7-.26v-1.3c.6.26 1.14.39 1.63.39.74 0 1.11-.19 1.11-.58 0-.19-.24-.44-.72-.76l-1.33-.94c-.48-.43-.72-.9-.72-1.39 0-.59.21-1.05.62-1.39.42-.33.98-.5 1.68-.5.36.01.85.09 1.47.25z"/><use xlink:href="#P" x="46.23"/><use xlink:href="#L" x="-1.99" y="12.91"/><use xlink:href="#M" x="-25.83" y="12.9"/><path d="M270.34 45.93v-9.3h1.57v3.86h3.34v-3.86h1.58v9.3h-1.58v-4.25h-3.34v4.25h-1.57z"/><use xlink:href="#R"/><use xlink:href="#Q" x="62.03"/><path d="M296.18 45.93v-.89h-.03c-.08.22-.26.44-.55.65-.34.26-.69.39-1.05.39-1.47 0-2.2-1.12-2.2-3.36 0-1 .17-1.79.52-2.38.39-.65.95-.98 1.68-.98.71 0 1.24.31 1.6.92h.03v-3.65h1.49v9.3h-1.49zm-2.24-3.21c0 1.46.37 2.19 1.11 2.19.38 0 .67-.24.88-.71.17-.4.26-.89.26-1.48 0-1.47-.38-2.2-1.13-2.2s-1.12.73-1.12 2.2z"/><use xlink:href="#O" x="-52.66" y="12.9"/><path d="M306.11 45.93v-9.3h1.49v9.3h-1.49zM313 39.6v1.27c-.58-.29-1.05-.43-1.43-.43-.25 0-.47.05-.67.16-.22.11-.33.26-.33.44 0 .22.24.47.73.78l1.36.9c.49.43.73.9.73 1.44 0 .64-.23 1.12-.68 1.45-.43.32-1.01.47-1.75.47a5.6 5.6 0 0 1-1.7-.26v-1.3c.6.26 1.14.39 1.63.39.74 0 1.11-.19 1.11-.58 0-.19-.24-.44-.72-.76l-1.33-.94c-.48-.43-.72-.9-.72-1.39 0-.59.21-1.05.62-1.39.42-.33.98-.5 1.68-.5.37.01.86.09 1.47.25zm1.81 6.33v-9.3h1.49v5.34l2.08-2.46h1.79l-2.37 2.78 2.59 3.64h-1.79l-2.27-3.24h-.03v3.24h-1.49z"/><use xlink:href="#R" x="42.56"/><use xlink:href="#S"/><use xlink:href="#S" x="10.4"/><use xlink:href="#M" x="63.37" y="12.9"/><path d="M355.29 45.93v-6.42h1.49v1.19h.03c.24-.42.47-.72.69-.9.35-.29.82-.43 1.39-.43v1.56c-.76 0-1.3.17-1.62.51s-.49.9-.49 1.68v2.82h-1.49zM168.01 72.04v-9.66h2.56c.8 0 1.43.2 1.9.6.49.42.73 1.01.73 1.78 0 1.09-.47 1.81-1.41 2.14v.03c1.24.31 1.86 1.14 1.86 2.5 0 .93-.31 1.61-.94 2.06-.53.37-1.24.56-2.13.56h-2.57zm1.09-8.75v3.26h.94c1.38 0 2.08-.57 2.08-1.72 0-1.03-.64-1.54-1.92-1.54h-1.1zm0 4.17v3.67h1.26c1.47 0 2.2-.61 2.2-1.82 0-.58-.2-1.04-.59-1.37-.38-.32-.87-.48-1.48-.48h-1.39z"/><use xlink:href="#T"/><use xlink:href="#U"/><path d="M192.41 65.37v6.68c0 1.93-.94 2.9-2.82 2.9-.41 0-1.01-.08-1.81-.23v-.96c.61.26 1.17.38 1.67.38.79 0 1.34-.22 1.65-.66.24-.34.36-.85.36-1.55v-1.18h-.03c-.1.31-.27.58-.51.8-.33.32-.75.47-1.26.47-.81 0-1.4-.34-1.78-1.03-.31-.56-.47-1.31-.47-2.26 0-.99.17-1.8.52-2.43.41-.73.99-1.09 1.76-1.09.5 0 .92.15 1.25.46a1.64 1.64 0 0 1 .49.78v-1.09h.98zm-3.91 3.39c0 1.65.45 2.47 1.35 2.47.52 0 .92-.3 1.22-.91.24-.5.37-1.08.37-1.75 0-.62-.12-1.18-.35-1.67-.29-.6-.69-.89-1.2-.89-.47 0-.83.28-1.07.84-.22.49-.32 1.12-.32 1.91zm9.68 3.28v-.88h-.03c-.12.23-.33.44-.63.64-.41.27-.88.4-1.42.4-.55 0-.99-.16-1.31-.49s-.48-.79-.48-1.38c0-.7.39-1.24 1.16-1.62.61-.3 1.29-.45 2.04-.45.29 0 .51-.01.66-.04l-.04-1.27c-.12-.62-.53-.93-1.23-.93-.82 0-1.28.36-1.38 1.07h-1.06c0-.5.18-.92.52-1.24.42-.41 1.04-.62 1.87-.62 1.49 0 2.24.71 2.24 2.14v4.68h-.91zm-.03-3.02h-.56c-.5 0-.95.09-1.36.28-.55.25-.83.63-.83 1.12 0 .3.09.54.28.72.18.16.4.25.66.25.31 0 .61-.09.9-.28.31-.19.53-.44.66-.76.16-.38.25-.83.25-1.33zm3.47 3.02v-9.66h.95v9.66h-.95z"/><use xlink:href="#V"/><use xlink:href="#W"/><use xlink:href="#V" x="10.71"/><path d="M232.65 72.04v-9.66h2.24c2.04 0 3.06.89 3.06 2.67s-1.02 2.67-3.06 2.67h-1.15v4.31h-1.09zm1.09-8.75v3.53h1.18c1.3 0 1.95-.58 1.95-1.75 0-.77-.27-1.29-.81-1.55-.31-.15-.77-.23-1.4-.23h-.92z"/><use xlink:href="#V" x="33.84"/><use xlink:href="#U" x="64.65"/><path d="M256.59 71.21V72c-.42.13-.93.2-1.53.2-1.04 0-1.83-.31-2.39-.94-.57-.63-.85-1.56-.85-2.78 0-1.03.21-1.82.63-2.38.45-.59 1.1-.88 1.97-.88.76 0 1.34.24 1.75.72.38.45.57 1.06.57 1.81v.32h-3.83v.4a3.72 3.72 0 0 0 .46 1.84c.42.72 1.05 1.08 1.9 1.08.34 0 .78-.06 1.32-.18zm-3.69-3.93h2.74a1.26 1.26 0 0 0-.28-.8c-.24-.31-.58-.46-1.02-.46-.8 0-1.27.42-1.44 1.26z"/><use xlink:href="#X"/><path d="M280.51 72.04V70.5c-.35 1.13-1.05 1.7-2.09 1.7-.56 0-.99-.21-1.29-.62-.28-.38-.43-.86-.43-1.45v-4.76h.95v3.7c0 .74.04 1.25.12 1.52.13.43.42.65.85.65.57 0 1.05-.37 1.42-1.11.31-.63.46-1.3.46-2.01v-2.75h.95v6.67h-.94zm-3.16-7.98v-1.24h1.26v1.24h-1.26zm2.46 0v-1.24h1.26v1.24h-1.26z"/><use xlink:href="#Y"/><use xlink:href="#Y" x="4.83"/><use xlink:href="#T" x="119.08"/><path d="M300.14 72.04v-9.66h.95v9.66h-.95zm6.49 0V70.9h-.03c-.09.31-.26.58-.52.82-.34.31-.74.47-1.21.47-1.52 0-2.28-1.14-2.28-3.43 0-1 .17-1.81.52-2.45.4-.73.98-1.09 1.75-1.09.87 0 1.46.41 1.75 1.24h.03v-4.09h.95v9.66h-.96zm-2.95-3.1c0 1.63.46 2.45 1.39 2.45.5 0 .9-.3 1.19-.9.25-.51.38-1.09.38-1.75 0-.78-.13-1.42-.39-1.91-.28-.54-.67-.81-1.15-.81-.95 0-1.42.97-1.42 2.92zm8.03 3.26c-.93 0-1.63-.34-2.1-1.01-.41-.6-.62-1.42-.62-2.46 0-1.05.21-1.88.62-2.48.47-.68 1.17-1.02 2.1-1.02s1.64.34 2.11 1.02c.42.61.63 1.43.63 2.48 0 1.04-.21 1.86-.63 2.46-.48.67-1.18 1.01-2.11 1.01zm-1.63-3.49c0 1.79.54 2.68 1.63 2.68 1.1 0 1.65-.89 1.65-2.68s-.55-2.69-1.65-2.69c-1.09 0-1.63.89-1.63 2.69z"/><use xlink:href="#W" x="104.91"/><path d="M321.98 72.04v-5.86h-1.12v-.81h1.12v-.92c0-1.41.73-2.11 2.19-2.11.38 0 .76.04 1.13.12v.85c-.36-.12-.69-.18-.97-.18-.93 0-1.4.51-1.4 1.52v.72h1.92v.81h-1.92v5.86h-.95zm-59.83-3.28v-1.67h1.67v1.67h-1.67zm-36.59 0v-1.67h1.67v1.67h-1.67zm-57.55-9.53v-9.66h1.64l2.74 8.22h.03l2.75-8.22h1.62v9.66h-.98v-8.5h-.03l-2.84 8.5h-1.08l-2.84-8.5h-.04v8.5h-.97zm14.48 0v-1.54c-.35 1.13-1.05 1.7-2.09 1.7-.56 0-.99-.21-1.29-.62-.28-.38-.43-.86-.43-1.45v-4.76h.95v3.7c0 .74.04 1.25.12 1.52.13.43.42.65.85.65.57 0 1.05-.37 1.42-1.11.31-.63.46-1.3.46-2.01v-2.75h.95v6.67h-.94zm2.88 0v-6.67h.95v1.54h.03c.32-1.13.94-1.69 1.87-1.69 1.04 0 1.6.51 1.67 1.52h.03c.13-.37.32-.69.57-.95.36-.38.8-.57 1.33-.57.54 0 .97.2 1.28.61.29.38.43.86.43 1.45v4.76h-.95v-3.7c0-.75-.04-1.25-.12-1.52-.14-.43-.43-.65-.86-.65-.51 0-.93.37-1.25 1.11-.28.63-.42 1.3-.42 2.01v2.74h-.95v-3.7c0-.74-.04-1.25-.12-1.51-.13-.44-.42-.66-.85-.66-.51 0-.92.37-1.25 1.11a4.94 4.94 0 0 0-.42 2.02v2.74h-.97zm10.81-9.66v4.1h.03c.1-.31.28-.58.53-.81.34-.3.77-.45 1.27-.45a1.99 1.99 0 0 1 1.87 1.13c.34.62.51 1.43.51 2.43 0 1.03-.21 1.83-.62 2.43-.46.66-1.15.99-2.05.99-1.66 0-2.5-.97-2.5-2.9v-6.92h.96zm0 6.58c0 1.62.51 2.42 1.52 2.42.55 0 .97-.28 1.25-.83.24-.46.36-1.07.36-1.82 0-.74-.11-1.36-.32-1.84-.26-.59-.64-.89-1.15-.89-.55 0-.97.33-1.27.98-.27.57-.39 1.22-.39 1.98z"/><use xlink:href="#Z"/><path d="M207.86 50.83v-1.26h1.26v1.26h-1.26zm.15 8.4v-6.67h.95v6.67h-.95z"/><use xlink:href="#X" x="-46.15" y="-12.81"/><use xlink:href="#a"/><path d="M235.44 59.23v-9.66h.95v9.66h-.95z"/><use xlink:href="#b"/><path d="M246.08 50.83v-1.26h1.26v1.26h-1.26zm.16 8.4v-6.67h.95v6.67h-.95zm14.42 0v-9.66h1.09v4.38h.03l3.39-4.38h1.27l-3.61 4.63 3.9 5.02h-1.29l-3.66-4.73h-.03v4.73h-1.09zm8.81.15c-.93 0-1.63-.34-2.1-1.01-.41-.6-.62-1.42-.62-2.46 0-1.05.21-1.88.62-2.48.47-.68 1.17-1.02 2.1-1.02s1.64.34 2.11 1.02c.42.61.63 1.43.63 2.48 0 1.04-.21 1.86-.63 2.46-.48.68-1.18 1.01-2.11 1.01zm-1.63-3.49c0 1.79.54 2.68 1.63 2.68 1.1 0 1.65-.89 1.65-2.68s-.55-2.69-1.65-2.69c-1.09 0-1.63.9-1.63 2.69zm6.13 3.34v-9.66h.95v9.66h-.95zm3.23 0v-9.66h.95v5.81h.03l2.31-2.82h1.16l-2.39 2.95 2.69 3.71h-1.18l-2.59-3.55h-.03v3.55h-.95z"/><use xlink:href="#c"/><path d="M292.65 58.45v.85c-.31.05-.59.08-.84.08-.67 0-1.14-.14-1.43-.41-.28-.27-.43-.71-.43-1.31v-4.29h-1.09v-.81h1.09v-1.55l.96-.6v2.15h1.79v.81h-1.79v4.09c0 .75.36 1.12 1.09 1.12a1.96 1.96 0 0 0 .65-.13z"/><use xlink:href="#c" x="11"/><path d="M314.51 57.67v1.13l-.9.35c-.5.15-1.05.23-1.67.23-1.33 0-2.32-.57-2.95-1.7-.51-.9-.76-2.05-.76-3.47 0-1.4.26-2.52.79-3.34.62-.98 1.57-1.47 2.86-1.47.94 0 1.68.27 2.22.81.51.51.77 1.17.77 1.98h-1.23c0-.56-.15-1-.46-1.34-.32-.36-.75-.54-1.31-.54-1.63 0-2.45 1.32-2.45 3.95 0 1.09.17 2 .5 2.71.47.99 1.23 1.49 2.28 1.49.84.01 1.61-.25 2.31-.79z"/><use xlink:href="#b" x="78.27"/><use xlink:href="#a" x="95.21"/><use xlink:href="#U" x="149.32" y="-12.81"/><use xlink:href="#U" x="156.25" y="-12.81"/><use xlink:href="#Z" x="142.63"/><path d="M351.05 50.83v-1.26h1.26v1.26h-1.26zm.15 8.4v-6.67h.95v6.67h-.95zm-135.93-3.28v-1.67h1.67v1.67h-1.67zm37.67 0v-1.67h1.67v1.67h-1.67zm50.08 0v-1.67h1.67v1.67h-1.67z"/><defs ><path  d="M61.77-71.65c.02.07.01.13-.03.19-.05.1-.11.06-.17.13a.64.64 0 0 0-.08.36c-.17.06-.01.23-.02.35 0 .05-.04.11-.04.16-.01.12.02.27.07.37a1.66 1.66 0 0 0 .44.54c.19.15.36.57.61.63.18.04.38-.1.54-.14.18-.04.4.01.57-.05.22-.08.13-.34.29-.45.1-.07.29-.01.41-.05.2-.07.34-.26.38-.46.02-.08.01-.14.04-.22.04-.1.11-.16.09-.29-.01-.06-.05-.12-.06-.19-.02-.11 0-.22 0-.34 0-.2.02-.38-.08-.55-.38-.69-1.24-.93-1.97-.79-.18.03-.29.13-.44.21-.17.09-.14.17-.32.22-.08.03-.22.12-.21.22 0 .12 0 .05.01.17-.02.01-.02 0-.03-.03"/><path  d="M23.44-71.65c.02.07.01.13-.03.19-.05.1-.11.06-.17.13a.64.64 0 0 0-.08.36c-.17.06-.01.23-.02.35 0 .05-.04.11-.04.16-.01.12.02.27.07.37a1.77 1.77 0 0 0 .43.54c.19.15.36.57.61.63.18.04.38-.1.54-.14.18-.04.4.01.57-.05.22-.08.13-.34.29-.45.1-.07.29-.01.41-.05.2-.07.34-.26.38-.46.02-.08.01-.14.04-.22.04-.1.11-.16.09-.29-.01-.06-.05-.12-.06-.19-.02-.11 0-.22 0-.34 0-.2.02-.38-.08-.55-.38-.69-1.24-.93-1.97-.79-.18.03-.29.13-.44.21-.17.09-.14.17-.32.22-.08.03-.22.12-.21.22 0 .12 0 .05.01.17-.02.01-.02 0-.03-.03"/><path  d="M46.46-64c.02.07.01.13-.03.19-.05.1-.11.06-.16.13a.64.64 0 0 0-.08.36c-.17.06-.01.23-.02.35 0 .05-.04.11-.05.16-.01.12.02.27.07.37a1.66 1.66 0 0 0 .44.54c.19.15.36.57.61.63.18.04.38-.1.54-.14.18-.04.4.01.57-.05.22-.08.13-.34.29-.45.1-.07.29-.01.41-.05.2-.07.34-.26.38-.46.02-.08.01-.14.04-.22.04-.1.11-.16.09-.29-.01-.06-.05-.12-.06-.19-.02-.11 0-.22 0-.34 0-.2.02-.38-.08-.55-.38-.69-1.24-.93-1.97-.79-.18.03-.29.13-.44.21-.17.09-.14.17-.32.22-.08.03-.22.12-.21.22 0 .12 0 .05.01.17-.02.01-.02 0-.03-.03"/><path  d="M69.44-25.74c.02.07.01.13-.03.19-.05.1-.11.06-.17.13a.64.64 0 0 0-.08.36c-.16.06 0 .23-.01.35 0 .05-.04.11-.04.16-.01.12.02.27.07.37a1.77 1.77 0 0 0 .43.54c.19.15.36.57.61.63.18.04.38-.1.54-.14.18-.04.4.01.57-.05.22-.08.13-.34.29-.45.1-.07.29-.01.41-.05.2-.07.34-.26.38-.46.02-.08.01-.14.04-.22.04-.1.11-.16.09-.29-.01-.06-.05-.12-.06-.19-.02-.11 0-.22 0-.34 0-.2.02-.38-.08-.55-.38-.69-1.24-.93-1.97-.79-.18.03-.29.13-.44.21-.17.09-.14.17-.32.22-.08.03-.22.12-.21.22 0 .12 0 .05.01.17-.02.01-.02 0-.03-.03"/><path  d="M8.16-25.74c.02.07.01.13-.03.19-.05.1-.11.06-.17.13a.64.64 0 0 0-.08.36c-.16.06 0 .23-.01.35 0 .05-.04.11-.04.16-.01.12.02.27.07.37a1.66 1.66 0 0 0 .44.54c.19.15.36.57.61.63.18.04.38-.1.54-.14.18-.04.4.01.57-.05.22-.08.13-.34.29-.45.1-.07.29-.01.41-.05.2-.07.34-.26.38-.46.02-.08.01-.14.04-.22.04-.1.11-.16.09-.29-.01-.06-.05-.12-.06-.19-.02-.11 0-.22 0-.34 0-.2.02-.38-.08-.55-.38-.69-1.24-.93-1.97-.79-.18.03-.29.13-.44.21-.17.09-.14.17-.32.22-.08.03-.22.12-.21.22 0 .12 0 .05.01.17-.02.01-.02 0-.03-.03"/><path  d="M54.12-10.43c.02.07.01.13-.03.19-.05.1-.11.06-.17.13a.64.64 0 0 0-.08.36c-.17.06-.01.23-.02.35 0 .05-.04.11-.04.16-.01.12.02.27.07.37a1.66 1.66 0 0 0 .44.54c.19.15.36.57.61.63.18.04.38-.1.54-.14.18-.04.4.01.57-.05.22-.08.13-.34.29-.45.1-.07.29-.01.41-.05.2-.07.34-.26.38-.46.01-.08 0-.15.03-.22.04-.1.11-.16.09-.29-.01-.06-.05-.12-.06-.19-.02-.11 0-.22 0-.34 0-.2.02-.38-.08-.55-.38-.69-1.24-.93-1.97-.79-.18.03-.29.13-.44.21-.17.09-.14.17-.32.22-.08.03-.22.12-.21.22 0 .12 0 .05.01.17-.02.01-.02 0-.03-.03"/><path id="H" d="M171.79 33.02V26.6h1.49v1.2h.03c.37-.9 1.01-1.34 1.9-1.34.5 0 .91.17 1.22.51.35.37.52.91.52 1.61v4.45h-1.5v-3.67l-.03-.96c-.08-.36-.29-.53-.63-.53-.47 0-.84.27-1.14.81-.25.47-.38.99-.38 1.57v2.78h-1.48z"/><path id="I" d="M212.06 31.88v1.04c-.53.17-1.13.26-1.8.26-1.04 0-1.83-.32-2.39-.96s-.84-1.55-.84-2.74c0-2.01.92-3.02 2.75-3.02.79 0 1.4.24 1.83.71.4.46.61 1.09.61 1.89v.36h-3.8c0 .6.18 1.16.53 1.69.46.68 1.08 1.01 1.88 1.01.36 0 .77-.08 1.23-.24zm-3.6-3.36h2.34c0-.27-.07-.51-.22-.7-.2-.27-.5-.4-.92-.4-.39 0-.69.14-.92.41a1.32 1.32 0 0 0-.28.69z"/><path id="J" d="M213.77 33.02V26.6h1.49v1.19h.03c.24-.42.47-.72.69-.9.35-.29.82-.43 1.39-.43v1.56c-.76 0-1.3.17-1.62.51s-.49.9-.49 1.68v2.82h-1.49z"/><path id="K" d="M218.68 33.02V26.6h1.49v.99h.03c.33-.75.89-1.13 1.69-1.13.9 0 1.43.43 1.61 1.28h.03a1.96 1.96 0 0 1 .59-.82 1.84 1.84 0 0 1 1.22-.45c.5 0 .91.17 1.23.51.34.37.51.91.51 1.61v4.45h-1.49v-3.67l-.03-.96c-.08-.36-.29-.53-.62-.53-.4 0-.72.27-.97.81-.21.47-.32.99-.32 1.57v2.78h-1.49v-3.67l-.04-.96c-.08-.36-.28-.53-.63-.53-.4 0-.72.27-.97.81-.22.47-.32.99-.32 1.57v2.78h-1.52z"/><path id="L" d="M254.55 33.02v-9.3h1.49v4.08h.03c.37-.9 1.01-1.34 1.9-1.34.5 0 .91.17 1.22.51.35.37.52.91.52 1.61v4.45h-1.5v-3.67l-.03-.96c-.08-.36-.29-.53-.63-.53-.47 0-.84.27-1.14.81-.25.47-.38.99-.38 1.57v2.78h-1.48z"/><path id="M" d="M290.19 31.88v1.04c-.53.17-1.13.26-1.8.26-1.04 0-1.83-.32-2.39-.96s-.84-1.55-.84-2.74c0-2.01.92-3.02 2.75-3.02.79 0 1.4.24 1.83.71.4.46.61 1.09.61 1.89v.36h-3.8c0 .6.18 1.16.53 1.69.46.68 1.08 1.01 1.88 1.01.35 0 .76-.08 1.23-.24zm-3.6-3.36h2.34c0-.27-.07-.51-.22-.7-.2-.27-.5-.4-.92-.4-.39 0-.69.14-.92.41-.16.2-.26.43-.28.69z"/><path id="N" d="M303.37 33.17c-.91 0-1.62-.3-2.11-.9-.48-.58-.72-1.4-.72-2.46s.24-1.89.73-2.48 1.19-.88 2.1-.88 1.61.29 2.1.88.73 1.41.73 2.48-.24 1.88-.72 2.46c-.5.6-1.2.9-2.11.9zm-1.24-3.35c0 .71.07 1.25.21 1.6a1.03 1.03 0 0 0 1.03.7c.49 0 .83-.23 1.03-.7.14-.35.21-.88.21-1.6s-.07-1.25-.21-1.6a1.03 1.03 0 0 0-1.03-.7c-.49 0-.83.23-1.03.7-.14.35-.21.88-.21 1.6z"/><path id="O" d="M356.93 31.88v1.04c-.53.17-1.13.26-1.8.26-1.04 0-1.83-.32-2.39-.96s-.84-1.55-.84-2.74c0-2.01.92-3.02 2.75-3.02.79 0 1.4.24 1.83.71.4.46.61 1.09.61 1.89v.36h-3.8c0 .6.18 1.16.53 1.69.46.68 1.08 1.01 1.88 1.01.36 0 .77-.08 1.23-.24zm-3.6-3.36h2.34c0-.27-.07-.51-.22-.7-.2-.27-.5-.4-.92-.4-.39 0-.69.14-.92.41-.15.2-.25.43-.28.69z"/><path id="P" d="M205.08 44.86v.92a6.3 6.3 0 0 1-1.88.3c-1.03 0-1.85-.28-2.44-.85-.66-.63-.99-1.56-.99-2.79 0-.9.23-1.63.68-2.17.51-.61 1.26-.91 2.25-.91 1.63 0 2.44.78 2.44 2.34h-1.59c0-.86-.32-1.29-.97-1.29a1.04 1.04 0 0 0-.92.51c-.21.32-.31.73-.31 1.24 0 .75.2 1.39.6 1.91.47.63 1.16.94 2.05.94.41.01.77-.04 1.08-.15z"/><path id="Q" d="M223.54 45.93v-6.42h1.49v1.2h.03c.37-.9 1.01-1.34 1.9-1.34.5 0 .91.17 1.22.51.35.37.52.91.52 1.61v4.45h-1.5v-3.67l-.03-.96c-.08-.36-.29-.53-.63-.53-.47 0-.84.27-1.14.81-.25.47-.38.99-.38 1.57v2.78h-1.48z"/><path id="R" d="M282.2 45.93v-.74h-.03c-.29.6-.85.9-1.67.9-.55 0-1-.15-1.36-.46s-.53-.72-.53-1.22c0-.91.49-1.54 1.46-1.88.49-.17 1.2-.27 2.13-.3v-.63c0-.78-.3-1.17-.9-1.17-.66 0-.99.33-.99.98h-1.46c0-.63.2-1.13.61-1.48.42-.37 1.04-.55 1.84-.55 1.55 0 2.33.67 2.33 1.99v4.57h-1.43zm-2.14-1.68c0 .51.27.77.8.77.45 0 .79-.21 1.03-.64.2-.36.3-.79.3-1.29-.57 0-1.04.09-1.43.26-.46.21-.7.51-.7.9z"/><path id="S" d="M328.13 45.93v-6.42h1.49v.99h.03c.33-.75.89-1.13 1.69-1.13.9 0 1.43.43 1.61 1.28h.03a1.96 1.96 0 0 1 .59-.82 1.84 1.84 0 0 1 1.22-.45c.5 0 .91.17 1.23.51.34.37.51.91.51 1.61v4.45h-1.49v-3.67l-.03-.96c-.08-.36-.29-.53-.62-.53-.4 0-.72.27-.97.81-.21.47-.32.99-.32 1.57v2.78h-1.49v-3.67l-.04-.96c-.08-.36-.28-.53-.63-.53-.4 0-.72.27-.97.81-.22.47-.32.99-.32 1.57v2.78h-1.52z"/><path id="T" d="M179.43 71.21V72c-.42.13-.93.2-1.53.2-1.04 0-1.83-.31-2.39-.94-.57-.63-.85-1.56-.85-2.78 0-1.03.21-1.82.63-2.38.45-.59 1.1-.88 1.97-.88.76 0 1.34.24 1.75.72.38.45.57 1.06.57 1.81v.32h-3.83v.4a3.72 3.72 0 0 0 .46 1.84c.42.72 1.05 1.08 1.9 1.08.35 0 .79-.06 1.32-.18zm-3.68-3.93h2.74a1.26 1.26 0 0 0-.28-.8c-.24-.31-.58-.46-1.02-.46-.8 0-1.28.42-1.44 1.26z"/><path id="U" d="M180.97 72.04v-6.67h.95v1.54h.03c.38-1.13 1.07-1.69 2.08-1.69.54 0 .97.2 1.28.61.29.38.43.86.43 1.45v4.76h-.95v-3.7c0-.74-.04-1.25-.12-1.51-.13-.44-.42-.66-.85-.66-.58 0-1.05.37-1.42 1.11a4.51 4.51 0 0 0-.47 2.02v2.74h-.96z"/><path id="V" d="M208.88 72.04V70.5c-.35 1.13-1.05 1.7-2.09 1.7-.56 0-.99-.21-1.29-.62-.28-.38-.43-.86-.43-1.45v-4.76h.95v3.7c0 .74.04 1.25.12 1.52.13.43.42.65.85.65.57 0 1.05-.37 1.42-1.11.31-.63.46-1.3.46-2.01v-2.75h.95v6.67h-.94z"/><path id="W" d="M211.78 72.04v-6.67h.95v1.29h.03c.42-.96 1.16-1.44 2.23-1.44v1.02c-.73 0-1.3.28-1.7.85-.37.53-.56 1.26-.56 2.19v2.75h-.95z"/><path id="X" d="M268.02 72.04v-9.66h2.17c1.4 0 2.42.42 3.06 1.25.6.77.89 1.96.89 3.55 0 1.95-.43 3.3-1.3 4.04-.64.55-1.65.82-3.01.82h-1.81zm1.09-8.75v7.84h.74c1.05 0 1.81-.23 2.26-.7.57-.59.85-1.67.85-3.23 0-1.6-.3-2.69-.91-3.26-.46-.43-1.23-.64-2.32-.64h-.62z"/><path id="Y" d="M286.11 67.94l.56.33 1.03.68c.35.32.53.73.53 1.23 0 1.34-.83 2.02-2.48 2.02-.62 0-1.23-.09-1.82-.28v-.87c.7.23 1.27.34 1.72.34 1.08 0 1.62-.36 1.62-1.08 0-.29-.15-.55-.45-.78-.07-.05-.32-.19-.75-.42l-.6-.32c-.5-.27-.83-.48-.99-.62a1.51 1.51 0 0 1-.52-1.18c0-.55.2-.98.59-1.29s.96-.47 1.69-.47c.39 0 .91.07 1.57.22v.88c-.55-.21-1.06-.31-1.55-.31-.4 0-.72.08-.97.25s-.38.37-.38.62c0 .23.14.44.41.62l.79.43z"/><path id="Z" d="M205.12 59.23v-.88h-.03c-.12.23-.33.44-.63.64-.41.27-.88.4-1.42.4-.55 0-.99-.16-1.31-.49s-.48-.79-.48-1.38c0-.7.39-1.24 1.16-1.62.61-.3 1.29-.45 2.04-.45.29 0 .51-.01.66-.04l-.04-1.27c-.12-.62-.53-.93-1.23-.93-.82 0-1.28.36-1.38 1.07h-1.06c0-.5.18-.92.52-1.24.42-.41 1.04-.62 1.87-.62 1.49 0 2.24.71 2.24 2.14v4.68h-.91zm-.02-3.02h-.56c-.5 0-.95.09-1.36.28-.55.25-.83.63-.83 1.12 0 .3.09.54.28.72.18.16.4.25.66.25.31 0 .61-.09.9-.28.31-.19.53-.44.66-.76.16-.39.25-.83.25-1.33z"/><path id="a" d="M233.81 58.39v.79c-.42.13-.93.2-1.53.2-1.04 0-1.83-.31-2.39-.94-.57-.63-.85-1.56-.85-2.78 0-1.03.21-1.82.63-2.38.45-.59 1.1-.88 1.97-.88.76 0 1.34.24 1.75.72.38.45.57 1.06.57 1.81v.32h-3.83v.4a3.72 3.72 0 0 0 .46 1.84c.42.72 1.05 1.08 1.9 1.08.35.01.79-.05 1.32-.18zm-3.68-3.92h2.74a1.26 1.26 0 0 0-.28-.8c-.24-.31-.58-.46-1.02-.46-.8-.01-1.28.42-1.44 1.26z"/><path id="b" d="M238.94 59.23v-9.66h.95v4.53h.03c.38-1.13 1.07-1.69 2.08-1.69.54 0 .97.2 1.28.61.29.38.43.86.43 1.45v4.76h-.95v-3.7c0-.74-.04-1.25-.12-1.51-.13-.44-.42-.66-.85-.66-.58 0-1.05.37-1.42 1.11a4.51 4.51 0 0 0-.47 2.02v2.74h-.96z"/><path id="c" d="M286.42 59.23v-.88h-.03c-.12.23-.33.44-.63.64-.41.27-.88.4-1.42.4-.55 0-.99-.16-1.31-.49s-.48-.79-.48-1.38c0-.7.39-1.24 1.16-1.62.61-.3 1.29-.45 2.04-.45.29 0 .51-.01.66-.04l-.04-1.27c-.12-.62-.53-.93-1.23-.93-.82 0-1.28.36-1.38 1.07h-1.06c0-.5.18-.92.52-1.24.42-.41 1.04-.62 1.87-.62 1.49 0 2.24.71 2.24 2.14v4.68h-.91zm-.03-3.02h-.56c-.5 0-.95.09-1.36.28-.55.25-.83.63-.83 1.12 0 .3.09.54.28.72.18.16.4.25.66.25.31 0 .61-.09.9-.28.31-.19.53-.44.66-.76.17-.39.25-.83.25-1.33z"/></defs></svg>